<?xml version="1.0" encoding="UTF-8"?>
<svg version="1.1" xmlns="http://www.w3.org/2000/svg" width="500" height="500">
<path d="M0 0 C0.93312515 -0.0038269 1.86625031 -0.00765381 2.82765198 -0.01159668 C4.79697755 -0.01431312 6.76633937 -0.00697072 8.7355957 0.00976562 C11.7405701 0.03115507 14.74314717 0.00996746 17.74804688 -0.015625 C19.66536983 -0.0129812 21.58269131 -0.00785515 23.5 0 C24.84087929 -0.01214539 24.84087929 -0.01214539 26.20884705 -0.02453613 C31.90846522 0.06058099 34.87112096 0.93941454 39.31640625 4.53125 C40.30640625 5.02625 40.30640625 5.02625 41.31640625 5.53125 C41.39245365 12.15145512 41.44500488 18.77154765 41.48120117 25.39208984 C41.4962902 27.64441131 41.5167638 29.89670339 41.54272461 32.14892578 C41.57910218 35.38581596 41.59613155 38.62231775 41.609375 41.859375 C41.62485886 42.86679749 41.64034271 43.87421997 41.65629578 44.91217041 C41.65663567 46.32318024 41.65663567 46.32318024 41.65698242 47.76269531 C41.66697517 49.00179657 41.66697517 49.00179657 41.6771698 50.26593018 C41.22796422 53.08659847 40.24604189 54.45430021 38.31640625 56.53125 C33.88092571 57.90700074 29.65534828 58.10101257 25.37890625 56.28125 C24.69828125 55.70375 24.01765625 55.12625 23.31640625 54.53125 C22.79304687 54.16902344 22.2696875 53.80679688 21.73046875 53.43359375 C19.47788371 50.40318238 19.74028182 46.98732223 19.62890625 43.34375 C19.59474609 42.59416016 19.56058594 41.84457031 19.52539062 41.07226562 C19.44306331 39.22578162 19.37805344 37.37854006 19.31640625 35.53125 C13.5707174 41.20750058 7.83312085 46.89175561 2.10574341 52.58647633 C-0.55381967 55.23036769 -3.21610771 57.87138995 -5.88476562 60.50610352 C-8.45893042 63.04772861 -11.02574773 65.59656232 -13.58758545 68.15060997 C-14.56740933 69.12488065 -15.54987459 70.09650216 -16.53497314 71.06543922 C-17.91174101 72.42050636 -19.27839496 73.78582645 -20.64453125 75.15161133 C-21.42618652 75.92660477 -22.2078418 76.70159821 -23.01318359 77.50007629 C-25.00118434 79.47912878 -25.00118434 79.47912878 -24.68359375 82.53125 C-24.20921875 83.005625 -23.73484375 83.48 -23.24609375 83.96875 C-21.40839145 85.8064523 -21.24493556 87.04530771 -20.68359375 89.53125 C-20.02359375 90.19125 -19.36359375 90.85125 -18.68359375 91.53125 C-18.17141379 95.17486965 -18.26669096 98.855792 -18.24609375 102.53125 C-18.21322266 103.53542969 -18.18035156 104.53960937 -18.14648438 105.57421875 C-18.09456261 112.87158745 -19.52791639 118.4518692 -23.68359375 124.53125 C-24.67359375 125.02625 -24.67359375 125.02625 -25.68359375 125.53125 C-25.97234375 126.170625 -26.26109375 126.81 -26.55859375 127.46875 C-27.95797434 130.03428109 -29.08538238 130.28077394 -31.68359375 131.53125 C-33.08931316 132.49617021 -34.4846805 133.47629024 -35.87109375 134.46875 C-44.77673809 140.38175087 -53.02966712 141.52312707 -63.68359375 140.53125 C-65.82130567 139.92882702 -67.94788681 139.28486643 -70.05859375 138.59375 C-74.05822079 137.41590422 -74.05822079 137.41590422 -77.890625 138.57421875 C-80.03657397 140.42388285 -81.8344025 142.38499992 -83.68359375 144.53125 C-85.27717598 146.16663111 -86.88147681 147.79163306 -88.49609375 149.40625 C-89.22441406 150.16679687 -89.95273438 150.92734375 -90.703125 151.7109375 C-92.68359375 153.53125 -92.68359375 153.53125 -95.68359375 154.53125 C-95.06484375 154.840625 -94.44609375 155.15 -93.80859375 155.46875 C-89.68359375 157.53125 -89.68359375 157.53125 -87.8671875 158.96484375 C-76.01624761 167.4661441 -58.39194046 167.77410433 -44.55859375 165.53125 C-38.54512412 164.25492175 -33.3120017 162.25754982 -27.80859375 159.53125 C-27.11233887 159.18707031 -26.41608398 158.84289062 -25.69873047 158.48828125 C-21.64715128 156.47213233 -21.64715128 156.47213233 -19.68359375 152.53125 C-18.72453125 152.3146875 -18.72453125 152.3146875 -17.74609375 152.09375 C-17.06546875 151.908125 -16.38484375 151.7225 -15.68359375 151.53125 C-14.98421843 150.21477881 -14.31630242 148.88102849 -13.68359375 147.53125 C-12.69359375 147.20125 -11.70359375 146.87125 -10.68359375 146.53125 C-10.35359375 145.87125 -10.02359375 145.21125 -9.68359375 144.53125 C-8.68359375 142.53125 -8.68359375 142.53125 -5.68359375 141.53125 C-5.30520647 140.20999607 -4.98411026 138.872361 -4.68359375 137.53125 C-3.58355329 135.39322264 -2.45487043 133.26984877 -1.30859375 131.15625 C2.37213078 124.13954684 4.0645132 117.37644645 5.31640625 109.53125 C5.97640625 109.53125 6.63640625 109.53125 7.31640625 109.53125 C7.52360739 100.47754115 7.52360739 100.47754115 6.31640625 91.53125 C5.65640625 91.53125 4.99640625 91.53125 4.31640625 91.53125 C3.3239008 85.82434366 3.21163113 80.31716511 3.31640625 74.53125 C9.13544733 71.62172946 13.01655248 70.51591038 19.56640625 72.53125 C23.36200045 75.29168215 24.39100834 77.99999124 25.31640625 82.53125 C25.46435922 84.66834849 25.43822575 86.73850938 25.35546875 88.87890625 C25.27359294 94.43827388 25.87521668 99.99274528 26.31640625 105.53125 C26.64640625 105.53125 26.97640625 105.53125 27.31640625 105.53125 C27.99082949 116.82159469 25.15569118 126.20166081 20.44140625 136.34375 C20.11398437 137.04894775 19.7865625 137.75414551 19.44921875 138.48071289 C13.72709155 150.32590735 13.72709155 150.32590735 9.31640625 152.53125 C9.02765625 153.170625 8.73890625 153.81 8.44140625 154.46875 C7.31640625 156.53125 7.31640625 156.53125 5.5546875 157.37109375 C2.65969813 158.87163798 0.71662522 160.885323 -1.62109375 163.15625 C-18.27622143 178.48427588 -39.33115207 185.58254302 -61.8125 184.87109375 C-76.16721294 184.06709249 -88.27945717 179.57866985 -100.68359375 172.53125 C-101.67866943 171.96664062 -101.67866943 171.96664062 -102.69384766 171.390625 C-104.3593894 170.44151268 -106.0218138 169.48693346 -107.68359375 168.53125 C-111.74383696 170.56927135 -111.74383696 170.56927135 -113.68359375 174.53125 C-114.32296875 174.840625 -114.96234375 175.15 -115.62109375 175.46875 C-118.17326705 176.52673226 -118.17326705 176.52673226 -119.68359375 180.53125 C-115.39359375 180.86125 -111.10359375 181.19125 -106.68359375 181.53125 C-106.68359375 182.19125 -106.68359375 182.85125 -106.68359375 183.53125 C-104.41082625 185.02649178 -102.11559945 186.31524715 -99.68359375 187.53125 C-99.60227912 188.96780854 -99.54425816 190.4056983 -99.49609375 191.84375 C-99.44388672 193.04451172 -99.44388672 193.04451172 -99.390625 194.26953125 C-99.68359375 196.53125 -99.68359375 196.53125 -100.8203125 198.19921875 C-105.93541015 201.85592378 -111.56667185 201.83886512 -117.58984375 201.83203125 C-118.85423279 201.83845894 -118.85423279 201.83845894 -120.14416504 201.84501648 C-121.91918035 201.85073723 -123.69421909 201.85127674 -125.46923828 201.84692383 C-128.17521293 201.8437598 -130.88009743 201.86726463 -133.5859375 201.89257812 C-135.31640488 201.89485105 -137.04687518 201.89555465 -138.77734375 201.89453125 C-139.5806311 201.903741 -140.38391846 201.91295074 -141.21154785 201.92243958 C-146.1325668 201.88216047 -149.36116854 201.12265074 -153.68359375 198.53125 C-154.34359375 198.20125 -155.00359375 197.87125 -155.68359375 197.53125 C-155.68359375 182.02125 -155.68359375 166.51125 -155.68359375 150.53125 C-148.44829963 146.91360294 -148.44829963 146.91360294 -142.68359375 147.53125 C-140.70359375 148.52125 -138.72359375 149.51125 -136.68359375 150.53125 C-136.68359375 156.47125 -136.68359375 162.41125 -136.68359375 168.53125 C-131.32242649 164.04250366 -126.27030766 159.33141353 -121.30859375 154.40625 C-120.22384766 153.35244141 -120.22384766 153.35244141 -119.1171875 152.27734375 C-118.43011719 151.59542969 -117.74304688 150.91351563 -117.03515625 150.2109375 C-116.41463379 149.59976074 -115.79411133 148.98858398 -115.15478516 148.35888672 C-113.56166505 146.65596553 -113.56166505 146.65596553 -113.25366211 144.59912109 C-112.40159713 141.50833292 -110.48097653 139.9928331 -108.2109375 137.765625 C-107.31181641 136.87617188 -106.41269531 135.98671875 -105.48632812 135.0703125 C-104.54080078 134.14992188 -103.59527344 133.22953125 -102.62109375 132.28125 C-101.66142402 131.33663327 -100.70243146 130.39132805 -99.74414062 129.4453125 C-97.39720547 127.13375828 -95.04355984 124.8294866 -92.68359375 122.53125 C-92.96726807 121.83797607 -93.25094238 121.14470215 -93.54321289 120.43041992 C-95.89082689 114.40613036 -97.32749247 109.30812741 -97.12109375 102.84375 C-97.11078125 102.11551025 -97.10046875 101.38727051 -97.08984375 100.63696289 C-96.92785423 95.32882834 -96.08611759 91.23619252 -93.68359375 86.53125 C-93.02359375 86.53125 -92.36359375 86.53125 -91.68359375 86.53125 C-90.60834181 83.87896188 -89.58903224 81.24756546 -88.68359375 78.53125 C-87.37167976 77.82336307 -86.03527587 77.15988158 -84.68359375 76.53125 C-83.65865421 75.62108233 -82.6591783 74.68163163 -81.68359375 73.71875 C-72.99346086 66.25696923 -63.70704983 64.83988097 -52.6640625 65.16015625 C-48.68305017 65.53130068 -45.46307195 66.3010669 -41.68359375 67.53125 C-41.06871094 66.80808594 -41.06871094 66.80808594 -40.44140625 66.0703125 C-39.90257812 65.43867188 -39.36375 64.80703125 -38.80859375 64.15625 C-38.27492188 63.52976563 -37.74125 62.90328125 -37.19140625 62.2578125 C-35.13804232 59.90655122 -33.07719577 58.04860671 -30.62109375 56.09375 C-27.49187676 53.80113259 -27.49187676 53.80113259 -26.68359375 50.53125 C-26.02359375 50.20125 -25.36359375 49.87125 -24.68359375 49.53125 C-24.68359375 48.54125 -24.68359375 47.55125 -24.68359375 46.53125 C-41.79587893 38.33161335 -60.35271101 35.93870672 -78.68359375 41.53125 C-86.80142571 44.68659736 -95.13519914 48.35650786 -100.18359375 55.71875 C-101.93636672 57.836684 -103.00758812 58.16214578 -105.68359375 58.53125 C-105.78671875 59.15 -105.88984375 59.76875 -105.99609375 60.40625 C-106.68359375 62.53125 -106.68359375 62.53125 -109.68359375 64.53125 C-110.41475399 66.17064834 -111.07168179 67.84371156 -111.68359375 69.53125 C-112.66390432 71.5824433 -113.66485597 73.62386812 -114.68359375 75.65625 C-115.45703125 77.20699219 -115.45703125 77.20699219 -116.24609375 78.7890625 C-117.68359375 81.53125 -117.68359375 81.53125 -119.68359375 84.53125 C-121.61578396 90.25507015 -121.10876216 96.75025057 -121.30859375 102.71875 C-121.36015625 104.00845703 -121.41171875 105.29816406 -121.46484375 106.62695312 C-121.65399695 112.07067082 -121.82519453 117.3600856 -121.11328125 122.76953125 C-120.68359375 126.53125 -120.68359375 126.53125 -122.18359375 129.53125 C-126.06376271 132.63538517 -129.55664119 132.53125 -134.37109375 132.53125 C-137.26172364 131.28124788 -138.34224234 129.49876782 -139.88671875 126.80859375 C-144.44258053 113.78865542 -142.08227093 97.31500834 -139.33984375 84.16796875 C-138.5720537 80.64674994 -138.5720537 80.64674994 -138.7890625 77.484375 C-138.50043251 69.40273533 -131.79053733 59.63121038 -126.68359375 53.53125 C-125.19859375 53.03625 -125.19859375 53.03625 -123.68359375 52.53125 C-123.53921875 51.891875 -123.39484375 51.2525 -123.24609375 50.59375 C-122.96765625 49.5728125 -122.96765625 49.5728125 -122.68359375 48.53125 C-121.35951706 47.84638275 -120.02450134 47.18254797 -118.68359375 46.53125 C-116.45094577 43.97027144 -114.56849364 41.35859984 -112.68359375 38.53125 C-110.55859375 37.84375 -110.55859375 37.84375 -108.68359375 37.53125 C-108.68359375 36.87125 -108.68359375 36.21125 -108.68359375 35.53125 C-108.15378906 35.44359375 -107.62398437 35.3559375 -107.078125 35.265625 C-103.83046694 34.26960589 -101.26520764 32.55710766 -98.37109375 30.78125 C-79.99294771 19.9588871 -59.42201072 17.37490756 -38.68359375 21.53125 C-28.33112474 24.29767178 -19.09508218 28.49922152 -9.68359375 33.53125 C-9.2246875 33.04914063 -8.76578125 32.56703125 -8.29296875 32.0703125 C-7.37257813 31.12285156 -7.37257813 31.12285156 -6.43359375 30.15625 C-5.8303125 29.52976563 -5.22703125 28.90328125 -4.60546875 28.2578125 C-2.68359375 26.53125 -2.68359375 26.53125 -0.57421875 25.4921875 C1.65603794 24.55307645 1.65603794 24.55307645 3.31640625 21.53125 C-3.11859375 21.03625 -3.11859375 21.03625 -9.68359375 20.53125 C-9.35359375 19.87125 -9.02359375 19.21125 -8.68359375 18.53125 C-9.63234375 18.056875 -10.58109375 17.5825 -11.55859375 17.09375 C-13.26692708 16.23958333 -14.97526042 15.38541667 -16.68359375 14.53125 C-16.48068702 12.94433769 -16.24502125 11.36159708 -15.99609375 9.78125 C-15.86847656 8.89953125 -15.74085938 8.0178125 -15.609375 7.109375 C-12.96063549 -0.26686161 -6.71209093 -0.06065926 0 0 Z M39.31640625 6.53125 C39.31640625 21.38125 39.31640625 36.23125 39.31640625 51.53125 C39.64640625 51.53125 39.97640625 51.53125 40.31640625 51.53125 C40.31640625 36.68125 40.31640625 21.83125 40.31640625 6.53125 C39.98640625 6.53125 39.65640625 6.53125 39.31640625 6.53125 Z M21.31640625 31.53125 C21.31640625 38.13125 21.31640625 44.73125 21.31640625 51.53125 C21.64640625 51.53125 21.97640625 51.53125 22.31640625 51.53125 C22.31640625 44.93125 22.31640625 38.33125 22.31640625 31.53125 C21.98640625 31.53125 21.65640625 31.53125 21.31640625 31.53125 Z M-131.68359375 62.53125 C-130.68359375 64.53125 -130.68359375 64.53125 -130.68359375 64.53125 Z M-135.68359375 70.53125 C-134.68359375 72.53125 -134.68359375 72.53125 -134.68359375 72.53125 Z M-136.68359375 72.53125 C-135.68359375 74.53125 -135.68359375 74.53125 -135.68359375 74.53125 Z M-137.68359375 75.53125 C-136.68359375 77.53125 -136.68359375 77.53125 -136.68359375 77.53125 Z M-118.68359375 76.53125 C-117.68359375 78.53125 -117.68359375 78.53125 -117.68359375 78.53125 Z M21.31640625 77.53125 C22.31640625 79.53125 22.31640625 79.53125 22.31640625 79.53125 Z M-119.68359375 79.53125 C-118.68359375 81.53125 -118.68359375 81.53125 -118.68359375 81.53125 Z M23.31640625 83.53125 C24.31640625 86.53125 24.31640625 86.53125 24.31640625 86.53125 Z M4.31640625 84.53125 C5.31640625 86.53125 5.31640625 86.53125 5.31640625 86.53125 Z M-122.68359375 88.53125 C-121.68359375 92.53125 -121.68359375 92.53125 -121.68359375 92.53125 Z M-93.68359375 88.53125 C-92.68359375 90.53125 -92.68359375 90.53125 -92.68359375 90.53125 Z M-94.68359375 91.53125 C-93.68359375 94.53125 -93.68359375 94.53125 -93.68359375 94.53125 Z M-20.68359375 92.53125 C-19.68359375 95.53125 -19.68359375 95.53125 -19.68359375 95.53125 Z M-123.68359375 93.53125 C-123.68359375 99.80125 -123.68359375 106.07125 -123.68359375 112.53125 C-123.35359375 112.53125 -123.02359375 112.53125 -122.68359375 112.53125 C-122.68359375 106.26125 -122.68359375 99.99125 -122.68359375 93.53125 C-123.01359375 93.53125 -123.34359375 93.53125 -123.68359375 93.53125 Z M-95.68359375 94.53125 C-95.68359375 99.81125 -95.68359375 105.09125 -95.68359375 110.53125 C-95.35359375 110.53125 -95.02359375 110.53125 -94.68359375 110.53125 C-94.68359375 105.25125 -94.68359375 99.97125 -94.68359375 94.53125 C-95.01359375 94.53125 -95.34359375 94.53125 -95.68359375 94.53125 Z M-94.68359375 111.53125 C-93.68359375 114.53125 -93.68359375 114.53125 -93.68359375 114.53125 Z M-20.68359375 111.53125 C-19.68359375 114.53125 -19.68359375 114.53125 -19.68359375 114.53125 Z M-21.68359375 114.53125 C-20.68359375 116.53125 -20.68359375 116.53125 -20.68359375 116.53125 Z M24.31640625 115.53125 C25.31640625 119.53125 25.31640625 119.53125 25.31640625 119.53125 Z M-140.68359375 116.53125 C-139.68359375 120.53125 -139.68359375 120.53125 -139.68359375 120.53125 Z M5.31640625 116.53125 C6.31640625 119.53125 6.31640625 119.53125 6.31640625 119.53125 Z M23.31640625 120.53125 C24.31640625 123.53125 24.31640625 123.53125 24.31640625 123.53125 Z M-139.68359375 121.53125 C-138.68359375 124.53125 -138.68359375 124.53125 -138.68359375 124.53125 Z M22.31640625 124.53125 C23.31640625 126.53125 23.31640625 126.53125 23.31640625 126.53125 Z M21.31640625 127.53125 C22.31640625 129.53125 22.31640625 129.53125 22.31640625 129.53125 Z M20.31640625 130.53125 C21.31640625 132.53125 21.31640625 132.53125 21.31640625 132.53125 Z " fill="#1F82F6" transform="translate(304.68359375,148.46875)"/>
<path d="M0 0 C2 3 2 3 1.625 6.1875 C1.41875 7.115625 1.2125 8.04375 1 9 C0.34 9 -0.32 9 -1 9 C-1.16914327 13.53465063 -1.3295197 18.06950074 -1.48217773 22.60473633 C-1.53517393 24.14388126 -1.59046331 25.68294918 -1.64819336 27.22192383 C-1.94699983 35.22733888 -2.22112519 43.04911818 -1 51 C-1.99 51.495 -1.99 51.495 -3 52 C-5.75247043 36.48458633 -7.65634886 21.61847784 -4 6 C-3.34 5.67 -2.68 5.34 -2 5 C-1.27840576 3.35636866 -0.60648579 1.68949614 0 0 Z M0 4 C1 6 1 6 1 6 Z M-3 13 C-2 17 -2 17 -2 17 Z M-4 18 C-4 24.27 -4 30.54 -4 37 C-3.67 37 -3.34 37 -3 37 C-3 30.73 -3 24.46 -3 18 C-3.33 18 -3.66 18 -4 18 Z " fill="#2F7BDE" transform="translate(185,224)"/>
<path d="M0 0 C0.66 0.33 1.32 0.66 2 1 C2.04898438 2.28132812 2.09796875 3.56265625 2.1484375 4.8828125 C2.59606708 20.05724654 2.59606708 20.05724654 5 35 C5.66 35.33 6.32 35.66 7 36 C7 36.99 7 37.98 7 39 C3.6402678 37.62939149 2.28360717 36.44049687 0.76953125 33.14453125 C-1.59260457 27.36926527 -1.48236255 21.84407363 -1.3125 15.6875 C-1.30283203 14.61693359 -1.29316406 13.54636719 -1.28320312 12.44335938 C-1.16148424 3.99183485 -1.16148424 3.99183485 0 0 Z M0 23 C1 27 1 27 1 27 Z M1 28 C2 31 2 31 2 31 Z " fill="#4389E9" transform="translate(164,242)"/>
<path d="M0 0 C0 4.15310058 -1.45772455 5.74067251 -4 9 C-6.251309 10.85118341 -8.55337834 12.40028584 -11 14 C-11.66 13.67 -12.32 13.34 -13 13 C-9.375 7.125 -9.375 7.125 -6 6 C-5.690625 5.360625 -5.38125 4.72125 -5.0625 4.0625 C-3.7657662 1.54531085 -2.5778263 1.03113052 0 0 Z " fill="#3176E1" transform="translate(300,289)"/>
<path d="M0 0 C0.33 0 0.66 0 1 0 C1 14.19 1 28.38 1 43 C0.67 43 0.34 43 0 43 C0 28.81 0 14.62 0 0 Z " fill="#0855C8" transform="translate(148,301)"/>
<path d="M0 0 C1.02105682 3.17102857 0.93824815 5.22349875 0.125 8.4375 C-0.4867888 10.90896467 -1.04571179 13.29386149 -1.4375 15.8125 C-2.10610759 18.41264064 -3.27231175 19.97184423 -5 22 C-6.17738474 17.85290599 -5.78177637 15.53410722 -4.1875 11.5625 C-3.81496094 10.60859375 -3.44242187 9.6546875 -3.05859375 8.671875 C-2.53458984 7.34929687 -2.53458984 7.34929687 -2 6 C-1.32318977 4.00340982 -0.65038501 2.00535378 0 0 Z M-3 14 C-2 16 -2 16 -2 16 Z " fill="#467FD9" transform="translate(328,265)"/>
<path d="M0 0 C14.19 0 28.38 0 43 0 C43 0.33 43 0.66 43 1 C28.81 1 14.62 1 0 1 C0 0.67 0 0.34 0 0 Z " fill="#00848A" transform="translate(295,147)"/>
<path d="M0 0 C12.87 0 25.74 0 39 0 C39 0.33 39 0.66 39 1 C26.13 1 13.26 1 0 1 C0 0.67 0 0.34 0 0 Z " fill="#7CFFFF" transform="translate(157,351)"/>
<path d="M0 0 C0.66 0.33 1.32 0.66 2 1 C0.54794521 5.59817352 0.54794521 5.59817352 -1.875 7.375 C-4.3334349 8.09806909 -5.61499846 7.85178626 -8 7 C-6.20963542 6.05598958 -4.41927083 5.11197917 -2.62890625 4.16796875 C-0.67732013 3.00980201 -0.67732013 3.00980201 0 0 Z " fill="#4486E1" transform="translate(285,301)"/>
<path d="M0 0 C2 3.75 2 3.75 2 6 C2.66 6.33 3.32 6.66 4 7 C4 7.99 4 8.98 4 10 C0.83884224 8.63016497 0.0072908 8.0109362 -2 5 C-1.48275862 1.48275862 -1.48275862 1.48275862 0 0 Z " fill="#3974CB" transform="translate(167,271)"/>
<path d="M0 0 C5.61 0 11.22 0 17 0 C16.01 0.99 15.02 1.98 14 3 C13.67 2.67 13.34 2.34 13 2 C10.81707226 1.76518307 8.62796826 1.58636677 6.4375 1.4375 C5.23996094 1.35371094 4.04242188 1.26992187 2.80859375 1.18359375 C1.88175781 1.12300781 0.95492188 1.06242188 0 1 C0 0.67 0 0.34 0 0 Z " fill="#1DCDF8" transform="translate(295,168)"/>
<path d="M0 0 C6.27 0 12.54 0 19 0 C19 0.33 19 0.66 19 1 C12.73 1 6.46 1 0 1 C0 0.67 0 0.34 0 0 Z " fill="#24B5EE" transform="translate(238,334)"/>
<path d="M0 0 C-0.66 0.66 -1.32 1.32 -2 2 C-3.32 2 -4.64 2 -6 2 C-6.33 2.66 -6.66 3.32 -7 4 C-7 2.68 -7 1.36 -7 0 C-3.86650268 -1.04449911 -3.01031744 -0.93423645 0 0 Z " fill="#5490F3" transform="translate(157,298)"/>
<path d="M0 0 C0.33 0 0.66 0 1 0 C1.33 4.95 1.66 9.9 2 15 C1.01 15.495 1.01 15.495 0 16 C0 10.72 0 5.44 0 0 Z " fill="#0628A7" transform="translate(168,301)"/>
<path d="M0 0 C5.61 0 11.22 0 17 0 C17 0.33 17 0.66 17 1 C11.39 1 5.78 1 0 1 C0 0.67 0 0.34 0 0 Z " fill="#3E7BE7" transform="translate(239,212)"/>
<path d="M0 0 C0.99 0.33 1.98 0.66 3 1 C1.95125002 3.62187494 1.35068687 4.79371361 -1.125 6.25 C-1.74375 6.4975 -2.3625 6.745 -3 7 C-2.625 5.0625 -2.625 5.0625 -2 3 C-1.34 2.67 -0.68 2.34 0 2 C0 1.34 0 0.68 0 0 Z " fill="#5E87D0" transform="translate(280,196)"/>
<path d="M0 0 C-0.625 1.9375 -0.625 1.9375 -2 4 C-5.125 4.75 -5.125 4.75 -8 5 C-3.16129032 0 -3.16129032 0 0 0 Z " fill="#3484EA" transform="translate(207,180)"/>
<path d="M0 0 C0.33 0 0.66 0 1 0 C1 4.95 1 9.9 1 15 C0.67 15 0.34 15 0 15 C0 10.05 0 5.1 0 0 Z " fill="#197CE2" transform="translate(286,244)"/>
<path d="M0 0 C4.62 0 9.24 0 14 0 C14 0.33 14 0.66 14 1 C9.38 1 4.76 1 0 1 C0 0.67 0 0.34 0 0 Z " fill="#2797F1" transform="translate(241,290)"/>
<path d="M0 0 C3.63 0.33 7.26 0.66 11 1 C11 1.33 11 1.66 11 2 C6.39790775 2.17700355 4.21629134 2.10814567 0 0 Z " fill="#1774C5" transform="translate(227,332)"/>
<path d="M0 0 C0.33 0 0.66 0 1 0 C1 3.96 1 7.92 1 12 C0.67 12 0.34 12 0 12 C0 8.04 0 4.08 0 0 Z " fill="#2260EA" transform="translate(311,246)"/>
<path d="M0 0 C3.3 0 6.6 0 10 0 C10 0.33 10 0.66 10 1 C6.7 1 3.4 1 0 1 C0 0.67 0 0.34 0 0 Z " fill="#1051C9" transform="translate(243,314)"/>
<path d="M0 0 C-2.64 0.33 -5.28 0.66 -8 1 C-4.93251126 -0.86240388 -3.40254489 -1.2151946 0 0 Z " fill="#2469AD" transform="translate(271,332)"/>
<path d="M0 0 C0.66 0.33 1.32 0.66 2 1 C0.35 2.32 -1.3 3.64 -3 5 C-1.125 1.125 -1.125 1.125 0 0 Z " fill="#002CE2" transform="translate(181,302)"/>
<path d="M0 0 C0.33 0 0.66 0 1 0 C1 2.97 1 5.94 1 9 C0.67 9 0.34 9 0 9 C0 6.03 0 3.06 0 0 Z " fill="#103DCA" transform="translate(162,256)"/>
<path d="M0 0 C0.33 0 0.66 0 1 0 C1 2.97 1 5.94 1 9 C0.67 9 0.34 9 0 9 C0 6.03 0 3.06 0 0 Z " fill="#0E70B7" transform="translate(331,240)"/>
<path d="M0 0 C2.97 0 5.94 0 9 0 C9 0.33 9 0.66 9 1 C6.03 1 3.06 1 0 1 C0 0.67 0 0.34 0 0 Z " fill="#0027C8" transform="translate(243,187)"/>
<path d="M0 0 C2.97 0 5.94 0 9 0 C9 0.33 9 0.66 9 1 C6.03 1 3.06 1 0 1 C0 0.67 0 0.34 0 0 Z " fill="#1D7ED3" transform="translate(252,167)"/>
<path d="M0 0 C2.97 0 5.94 0 9 0 C9 0.33 9 0.66 9 1 C6.03 1 3.06 1 0 1 C0 0.67 0 0.34 0 0 Z " fill="#167CD3" transform="translate(234,167)"/>
<path d="M0 0 C2.97 0 5.94 0 9 0 C9 0.33 9 0.66 9 1 C6.03 1 3.06 1 0 1 C0 0.67 0 0.34 0 0 Z " fill="#00E2FF" transform="translate(243,166)"/>
<path d="M0 0 C2.31 0.33 4.62 0.66 7 1 C5.1875 1.625 5.1875 1.625 3 2 C2.01 1.34 1.02 0.68 0 0 Z " fill="#126CBF" transform="translate(220,330)"/>
<path d="M0 0 C2.64 0 5.28 0 8 0 C8 0.33 8 0.66 8 1 C5.36 1 2.72 1 0 1 C0 0.67 0 0.34 0 0 Z " fill="#1A94C9" transform="translate(235,313)"/>
<path d="M0 0 C2.64 0 5.28 0 8 0 C8 0.33 8 0.66 8 1 C5.36 1 2.72 1 0 1 C0 0.67 0 0.34 0 0 Z " fill="#1244D9" transform="translate(155,294)"/>
<path d="M0 0 C0.33 0 0.66 0 1 0 C1 2.64 1 5.28 1 8 C0.67 8 0.34 8 0 8 C0 5.36 0 2.72 0 0 Z " fill="#1F4AEC" transform="translate(162,238)"/>
<path d="M0 0 C2.64 0 5.28 0 8 0 C8 0.33 8 0.66 8 1 C5.36 1 2.72 1 0 1 C0 0.67 0 0.34 0 0 Z " fill="#1E96E6" transform="translate(252,188)"/>
<path d="M0 0 C2.64 0 5.28 0 8 0 C8 0.33 8 0.66 8 1 C5.36 1 2.72 1 0 1 C0 0.67 0 0.34 0 0 Z " fill="#22ACF7" transform="translate(235,188)"/>
<path d="M0 0 C2.31 0 4.62 0 7 0 C7 0.33 7 0.66 7 1 C4.69 1 2.38 1 0 1 C0 0.67 0 0.34 0 0 Z " fill="#1394E5" transform="translate(253,313)"/>
<path d="M0 0 C0.66 0.33 1.32 0.66 2 1 C0.68 1.99 -0.64 2.98 -2 4 C-1.34 2.68 -0.68 1.36 0 0 Z " fill="#0022B9" transform="translate(188,295)"/>
<path d="M0 0 C2.31 0 4.62 0 7 0 C7 0.33 7 0.66 7 1 C4.69 1 2.38 1 0 1 C0 0.67 0 0.34 0 0 Z " fill="#2454DA" transform="translate(314,218)"/>
<path d="M0 0 C2.97 0.495 2.97 0.495 6 1 C5.01 1.33 4.02 1.66 3 2 C2.01 1.34 1.02 0.68 0 0 Z " fill="#1E57D1" transform="translate(256,213)"/>
<path d="M0 0 C1.98 0 3.96 0 6 0 C6 0.33 6 0.66 6 1 C4.02 1 2.04 1 0 1 C0 0.67 0 0.34 0 0 Z " fill="#2890E8" transform="translate(257,333)"/>
<path d="M0 0 C0.33 0 0.66 0 1 0 C1 1.98 1 3.96 1 6 C0.67 6 0.34 6 0 6 C0 4.02 0 2.04 0 0 Z " fill="#168CDD" transform="translate(310,240)"/>
<path d="M0 0 C0.33 0 0.66 0 1 0 C1 1.98 1 3.96 1 6 C0.67 6 0.34 6 0 6 C0 4.02 0 2.04 0 0 Z " fill="#2A94DF" transform="translate(287,155)"/>
<path d="M0 0 C0.33 0 0.66 0 1 0 C1 1.65 1 3.3 1 5 C0.67 5 0.34 5 0 5 C0 3.35 0 1.7 0 0 Z " fill="#327FFF" transform="translate(205,338)"/>
<path d="M0 0 C1.65 0 3.3 0 5 0 C5 0.33 5 0.66 5 1 C3.35 1 1.7 1 0 1 C0 0.67 0 0.34 0 0 Z " fill="#1D43E5" transform="translate(236,289)"/>
<path d="M0 0 C1.65 0 3.3 0 5 0 C5 0.33 5 0.66 5 1 C3.35 1 1.7 1 0 1 C0 0.67 0 0.34 0 0 Z " fill="#3366EE" transform="translate(173,282)"/>
<path d="M0 0 C0.33 0 0.66 0 1 0 C1 1.65 1 3.3 1 5 C0.67 5 0.34 5 0 5 C0 3.35 0 1.7 0 0 Z " fill="#00A1DD" transform="translate(185,270)"/>
<path d="M0 0 C0.33 0 0.66 0 1 0 C1 1.65 1 3.3 1 5 C0.67 5 0.34 5 0 5 C0 3.35 0 1.7 0 0 Z " fill="#1983F2" transform="translate(183,261)"/>
<path d="M0 0 C0.33 0 0.66 0 1 0 C1 1.65 1 3.3 1 5 C0.67 5 0.34 5 0 5 C0 3.35 0 1.7 0 0 Z " fill="#0099FF" transform="translate(332,249)"/>
<path d="M0 0 C0.33 0 0.66 0 1 0 C1 1.65 1 3.3 1 5 C0.67 5 0.34 5 0 5 C0 3.35 0 1.7 0 0 Z " fill="#000066" transform="translate(161,249)"/>
<path d="M0 0 C0.33 0 0.66 0 1 0 C1 1.65 1 3.3 1 5 C0.67 5 0.34 5 0 5 C0 3.35 0 1.7 0 0 Z " fill="#1187FF" transform="translate(330,235)"/>
<path d="M0 0 C0.33 0 0.66 0 1 0 C1 1.65 1 3.3 1 5 C0.67 5 0.34 5 0 5 C0 3.35 0 1.7 0 0 Z " fill="#0C4CD8" transform="translate(163,233)"/>
<path d="M0 0 C1.65 0 3.3 0 5 0 C5 0.33 5 0.66 5 1 C3.35 1 1.7 1 0 1 C0 0.67 0 0.34 0 0 Z " fill="#00B2B2" transform="translate(333,207)"/>
<path d="M0 0 C1.65 0 3.3 0 5 0 C5 0.33 5 0.66 5 1 C3.35 1 1.7 1 0 1 C0 0.67 0 0.34 0 0 Z " fill="#0C83EE" transform="translate(230,189)"/>
<path d="M0 0 C1.65 0 3.3 0 5 0 C5 0.33 5 0.66 5 1 C3.35 1 1.7 1 0 1 C0 0.67 0 0.34 0 0 Z " fill="#1D87EE" transform="translate(261,168)"/>
<path d="M0 0 C1.65 0 3.3 0 5 0 C5 0.33 5 0.66 5 1 C3.35 1 1.7 1 0 1 C0 0.67 0 0.34 0 0 Z " fill="#1D87FF" transform="translate(229,168)"/>
<path d="M0 0 C4 1 4 1 4 1 Z " fill="#22A3D2" transform="translate(260,312)"/>
<path d="M0 0 C4 1 4 1 4 1 Z " fill="#22A3D2" transform="translate(231,312)"/>
<path d="M0 0 C4 1 4 1 4 1 Z " fill="#157FFF" transform="translate(227,311)"/>
<path d="M0 0 C4 1 4 1 4 1 Z " fill="#0F54EF" transform="translate(255,289)"/>
<path d="M0 0 C1 4 1 4 1 4 Z " fill="#0F94E9" transform="translate(184,266)"/>
<path d="M0 0 C1 4 1 4 1 4 Z " fill="#159FE9" transform="translate(184,233)"/>
<path d="M0 0 C4 1 4 1 4 1 Z " fill="#359FE9" transform="translate(235,213)"/>
<path d="M0 0 C4 1 4 1 4 1 Z " fill="#22C3F2" transform="translate(260,189)"/>
<path d="M0 0 C4 1 4 1 4 1 Z " fill="#0F8FDF" transform="translate(266,169)"/>
<path d="M0 0 C4 1 4 1 4 1 Z " fill="#0F8FDF" transform="translate(225,169)"/>
<path d="M0 0 C3 1 3 1 3 1 Z " fill="#0054E9" transform="translate(196,350)"/>
<path d="M0 0 C3 1 3 1 3 1 Z " fill="#1C55FF" transform="translate(154,350)"/>
<path d="M0 0 C3 1 3 1 3 1 Z " fill="#719BE2" transform="translate(271,330)"/>
<path d="M0 0 C3 1 3 1 3 1 Z " fill="#1C8DE2" transform="translate(274,329)"/>
<path d="M0 0 C3 1 3 1 3 1 Z " fill="#0071C6" transform="translate(215,328)"/>
<path d="M0 0 C3 1 3 1 3 1 Z " fill="#1C1CD4" transform="translate(281,326)"/>
<path d="M0 0 C3 1 3 1 3 1 Z " fill="#1554FF" transform="translate(264,311)"/>
<path d="M0 0 C3 1 3 1 3 1 Z " fill="#1554D4" transform="translate(267,310)"/>
<path d="M0 0 C3 1 3 1 3 1 Z " fill="#1C38D4" transform="translate(224,310)"/>
<path d="M0 0 C0.99 0.495 0.99 0.495 2 1 C1.01 1.495 1.01 1.495 0 2 C0 1.34 0 0.68 0 0 Z " fill="#1546FF" transform="translate(175,308)"/>
<path d="M0 0 C3 1 3 1 3 1 Z " fill="#3F54E9" transform="translate(233,288)"/>
<path d="M0 0 C3 1 3 1 3 1 Z " fill="#1C71FF" transform="translate(261,287)"/>
<path d="" fill="#3B68EE" transform="translate(0,0)"/>
<path d="" fill="#314694" transform="translate(0,0)"/>
<path d="" fill="#31B8CD" transform="translate(0,0)"/>
<path d="M0 0 C0.33 0.66 0.66 1.32 1 2 C0.34 1.67 -0.32 1.34 -1 1 C-0.67 0.67 -0.34 0.34 0 0 Z " fill="#004CEE" transform="translate(200,206)"/>
<path d="M0 0 C0.99 0.495 0.99 0.495 2 1 C1.01 1.495 1.01 1.495 0 2 C0 1.34 0 0.68 0 0 Z " fill="#3163FF" transform="translate(179,200)"/>
<path d="M0 0 C3 1 3 1 3 1 Z " fill="#1C55FF" transform="translate(268,191)"/>
<path d="M0 0 C3 1 3 1 3 1 Z " fill="#159BCD" transform="translate(265,190)"/>
<path d="M0 0 C3 1 3 1 3 1 Z " fill="#3F54FF" transform="translate(227,190)"/>
<path d="M0 0 C3 1 3 1 3 1 Z " fill="#001CE2" transform="translate(214,173)"/>
<path d="M0 0 C3 1 3 1 3 1 Z " fill="#008DE2" transform="translate(276,172)"/>
<path d="M0 0 C3 1 3 1 3 1 Z " fill="#4678E9" transform="translate(273,171)"/>
<path d="M0 0 C3 1 3 1 3 1 Z " fill="#1C86E9" transform="translate(219,171)"/>
<path d="M0 0 C3 1 3 1 3 1 Z " fill="#7186E9" transform="translate(270,170)"/>
<path d="M0 0 C3 1 3 1 3 1 Z " fill="#009BFF" transform="translate(222,170)"/>
<path d="M0 0 C0.66 0 1.32 0 2 0 C1.67 0.66 1.34 1.32 1 2 C0.67 1.34 0.34 0.68 0 0 Z " fill="#0038D4" transform="translate(342,151)"/>
<path d="M0 0 C2 1 2 1 2 1 Z " fill="#002AFF" transform="translate(199,349)"/>
<path d="M0 0 C2 1 2 1 2 1 Z " fill="#009FDF" transform="translate(198,331)"/>
<path d="M0 0 C2 1 2 1 2 1 Z " fill="#1F7FDF" transform="translate(218,329)"/>
<path d="M0 0 C2 1 2 1 2 1 Z " fill="#005FDF" transform="translate(277,328)"/>
<path d="M0 0 C2 1 2 1 2 1 Z " fill="#2A55D4" transform="translate(279,327)"/>
<path d="M0 0 C2 1 2 1 2 1 Z " fill="#005FBF" transform="translate(213,327)"/>
<path d="M0 0 C2 1 2 1 2 1 Z " fill="#3F6AFF" transform="translate(211,326)"/>
<path d="M0 0 C2 1 2 1 2 1 Z " fill="#006AFF" transform="translate(209,325)"/>
<path d="M0 0 C2 1 2 1 2 1 Z " fill="#2A2AD4" transform="translate(285,324)"/>
<path d="M0 0 C2 1 2 1 2 1 Z " fill="#7FAAFF" transform="translate(207,324)"/>
<path d="M0 0 C2 1 2 1 2 1 Z " fill="#3F3FBF" transform="translate(287,323)"/>
<path d="M0 0 C2 1 2 1 2 1 Z " fill="#7FAAFF" transform="translate(289,322)"/>
<path d="M0 0 C2 1 2 1 2 1 Z " fill="#00AAFF" transform="translate(202,321)"/>
<path d="M0 0 C2 1 2 1 2 1 Z " fill="#3F3F94" transform="translate(292,320)"/>
<path d="M0 0 C2 1 2 1 2 1 Z " fill="#00AAFF" transform="translate(199,319)"/>
<path d="M0 0 C2 1 2 1 2 1 Z " fill="#00AAFF" transform="translate(295,318)"/>
<path d="M0 0 C2 1 2 1 2 1 Z " fill="#7F7FFF" transform="translate(300,314)"/>
<path d="M0 0 C2 1 2 1 2 1 Z " fill="#3F6AD4" transform="translate(271,309)"/>
<path d="M0 0 C2 1 2 1 2 1 Z " fill="#1FBFDF" transform="translate(222,309)"/>
<path d="M0 0 C2 1 2 1 2 1 Z " fill="#00AAFF" transform="translate(273,308)"/>
<path d="M0 0 C2 1 2 1 2 1 Z " fill="#2A2ABF" transform="translate(219,308)"/>
<path d="M0 0 C2 1 2 1 2 1 Z " fill="#00AAFF" transform="translate(275,307)"/>
<path d="M0 0 C2 1 2 1 2 1 Z " fill="#3F3FD4" transform="translate(217,307)"/>
<path d="M0 0 C2 1 2 1 2 1 Z " fill="#7FAAFF" transform="translate(277,306)"/>
<path d="M0 0 C2 1 2 1 2 1 Z " fill="#3F7FFF" transform="translate(215,306)"/>
<path d="M0 0 C2 1 2 1 2 1 Z " fill="#7FAAD4" transform="translate(279,305)"/>
<path d="M0 0 C2 1 2 1 2 1 Z " fill="#00BFDF" transform="translate(282,303)"/>
<path d="M0 0 C2 1 2 1 2 1 Z " fill="#009FDF" transform="translate(210,303)"/>
<path d="M0 0 C2 1 2 1 2 1 Z " fill="#00AAD4" transform="translate(153,295)"/>
<path d="M0 0 C2 1 2 1 2 1 Z " fill="#5F7FFF" transform="translate(259,288)"/>
<path d="M0 0 C2 1 2 1 2 1 Z " fill="#2AD4FF" transform="translate(231,287)"/>
<path d="M0 0 C2 1 2 1 2 1 Z " fill="#002AFF" transform="translate(264,286)"/>
<path d="M0 0 C2 1 2 1 2 1 Z " fill="#00AAFF" transform="translate(229,286)"/>
<path d="M0 0 C2 1 2 1 2 1 Z " fill="#003FBF" transform="translate(267,284)"/>
<path d="M0 0 C2 1 2 1 2 1 Z " fill="#007FBF" transform="translate(271,281)"/>
<path d="M0 0 C2 1 2 1 2 1 Z " fill="#006AD4" transform="translate(178,281)"/>
<path d="M0 0 C2 1 2 1 2 1 Z " fill="#3F6AFF" transform="translate(171,281)"/>
<path d="" fill="#007FD4" transform="translate(0,0)"/>
<path d="" fill="#006AD4" transform="translate(0,0)"/>
<path d="" fill="#2A6AFF" transform="translate(0,0)"/>
<path d="" fill="#2A6AD4" transform="translate(0,0)"/>
<path d="" fill="#2A94FF" transform="translate(0,0)"/>
<path d="M0 0 C2 1 2 1 2 1 Z " fill="#00AAD4" transform="translate(321,219)"/>
<path d="M0 0 C2 1 2 1 2 1 Z " fill="#006A94" transform="translate(312,219)"/>
<path d="M0 0 C2 1 2 1 2 1 Z " fill="#007FD4" transform="translate(224,219)"/>
<path d="M0 0 C2 1 2 1 2 1 Z " fill="#3F3FD4" transform="translate(227,217)"/>
<path d="M0 0 C2 1 2 1 2 1 Z " fill="#2A2AD4" transform="translate(229,216)"/>
<path d="M0 0 C2 1 2 1 2 1 Z " fill="#3F6AFF" transform="translate(231,215)"/>
<path d="M0 0 C2 1 2 1 2 1 Z " fill="#3F6AFF" transform="translate(233,214)"/>
<path d="M0 0 C2 1 2 1 2 1 Z " fill="#2A55AA" transform="translate(338,206)"/>
<path d="M0 0 C2 1 2 1 2 1 Z " fill="#1F7FBF" transform="translate(331,206)"/>
<path d="M0 0 C2 1 2 1 2 1 Z " fill="#003FDF" transform="translate(207,200)"/>
<path d="M0 0 C2 1 2 1 2 1 Z " fill="#003FFF" transform="translate(211,197)"/>
<path d="M0 0 C2 1 2 1 2 1 Z " fill="#00AAFF" transform="translate(213,196)"/>
<path d="M0 0 C2 1 2 1 2 1 Z " fill="#2A2ABF" transform="translate(278,195)"/>
<path d="M0 0 C2 1 2 1 2 1 Z " fill="#002AFF" transform="translate(215,195)"/>
<path d="M0 0 C2 1 2 1 2 1 Z " fill="#3F7FFF" transform="translate(276,194)"/>
<path d="M0 0 C2 1 2 1 2 1 Z " fill="#00AAFF" transform="translate(217,194)"/>
<path d="M0 0 C2 1 2 1 2 1 Z " fill="#2A55BF" transform="translate(274,193)"/>
<path d="M0 0 C2 1 2 1 2 1 Z " fill="#009FDF" transform="translate(219,193)"/>
<path d="M0 0 C2 1 2 1 2 1 Z " fill="#1F3FDF" transform="translate(271,192)"/>
<path d="M0 0 C2 1 2 1 2 1 Z " fill="#3F6AD4" transform="translate(221,192)"/>
<path d="M0 0 C2 1 2 1 2 1 Z " fill="#5F7F9F" transform="translate(224,191)"/>
<path d="M0 0 C2 1 2 1 2 1 Z " fill="#00AAFF" transform="translate(200,181)"/>
<path d="M0 0 C2 1 2 1 2 1 Z " fill="#3F3FBF" transform="translate(292,180)"/>
<path d="M0 0 C2 1 2 1 2 1 Z " fill="#00AAFF" transform="translate(203,179)"/>
<path d="M0 0 C2 1 2 1 2 1 Z " fill="#7FAAD4" transform="translate(289,178)"/>
<path d="M0 0 C2 1 2 1 2 1 Z " fill="#3F3FBF" transform="translate(205,178)"/>
<path d="M0 0 C2 1 2 1 2 1 Z " fill="#3F3FD4" transform="translate(287,177)"/>
<path d="M0 0 C2 1 2 1 2 1 Z " fill="#002A94" transform="translate(285,176)"/>
<path d="M0 0 C2 1 2 1 2 1 Z " fill="#002AD4" transform="translate(283,175)"/>
<path d="M0 0 C2 1 2 1 2 1 Z " fill="#00AAFF" transform="translate(210,175)"/>
<path d="M0 0 C2 1 2 1 2 1 Z " fill="#2A55D4" transform="translate(281,174)"/>
<path d="M0 0 C2 1 2 1 2 1 Z " fill="#00AAFF" transform="translate(212,174)"/>
<path d="M0 0 C2 1 2 1 2 1 Z " fill="#3F6AFF" transform="translate(279,173)"/>
<path d="M0 0 C2 1 2 1 2 1 Z " fill="#3F5FFF" transform="translate(217,172)"/>
<path d="M0 0 C2 1 2 1 2 1 Z " fill="#1F3FDF" transform="translate(293,167)"/>
<path d="" fill="#2A6AD4" transform="translate(0,0)"/>
<path d="M0 0 C2 1 2 1 2 1 Z " fill="#2A55AA" transform="translate(338,148)"/>
<path d="M0 0 C2 1 2 1 2 1 Z " fill="#007FDF" transform="translate(293,148)"/>
<path d="" fill="#007FFF" transform="translate(0,0)"/>
<path d="" fill="#00FFFF" transform="translate(0,0)"/>
<path d="" fill="#5555AA" transform="translate(0,0)"/>
<path d="" fill="#5555AA" transform="translate(0,0)"/>
<path d="" fill="#5555FF" transform="translate(0,0)"/>
<path d="" fill="#0055AA" transform="translate(0,0)"/>
<path d="" fill="#0055AA" transform="translate(0,0)"/>
<path d="" fill="#7F7FFF" transform="translate(0,0)"/>
<path d="" fill="#7F7FFF" transform="translate(0,0)"/>
<path d="" fill="#5555AA" transform="translate(0,0)"/>
<path d="" fill="#7F7FFF" transform="translate(0,0)"/>
<path d="" fill="#7F7FFF" transform="translate(0,0)"/>
<path d="" fill="#0055FF" transform="translate(0,0)"/>
<path d="" fill="#FFFFFF" transform="translate(0,0)"/>
<path d="" fill="#0055AA" transform="translate(0,0)"/>
<path d="" fill="#0055FF" transform="translate(0,0)"/>
<path d="" fill="#0055FF" transform="translate(0,0)"/>
<path d="" fill="#FFFFFF" transform="translate(0,0)"/>
<path d="" fill="#0055FF" transform="translate(0,0)"/>
<path d="" fill="#7F7F7F" transform="translate(0,0)"/>
<path d="" fill="#7F7FFF" transform="translate(0,0)"/>
<path d="" fill="#7F7FFF" transform="translate(0,0)"/>
<path d="" fill="#5555FF" transform="translate(0,0)"/>
<path d="" fill="#5555FF" transform="translate(0,0)"/>
<path d="" fill="#0055FF" transform="translate(0,0)"/>
<path d="" fill="#3366CC" transform="translate(0,0)"/>
<path d="" fill="#7F7FFF" transform="translate(0,0)"/>
<path d="" fill="#3366CC" transform="translate(0,0)"/>
<path d="" fill="#55AAFF" transform="translate(0,0)"/>
<path d="" fill="#007FFF" transform="translate(0,0)"/>
<path d="" fill="#55AAFF" transform="translate(0,0)"/>
<path d="" fill="#003FBF" transform="translate(0,0)"/>
<path d="" fill="#3F7FBF" transform="translate(0,0)"/>
<path d="" fill="#003FFF" transform="translate(0,0)"/>
<path d="" fill="#3F3FBF" transform="translate(0,0)"/>
<path d="" fill="#0055FF" transform="translate(0,0)"/>
<path d="" fill="#3F3FBF" transform="translate(0,0)"/>
<path d="" fill="#0055FF" transform="translate(0,0)"/>
<path d="" fill="#0055FF" transform="translate(0,0)"/>
<path d="" fill="#55AAFF" transform="translate(0,0)"/>
<path d="" fill="#5555AA" transform="translate(0,0)"/>
<path d="" fill="#0055FF" transform="translate(0,0)"/>
<path d="" fill="#246DDA" transform="translate(0,0)"/>
<path d="" fill="#0066CC" transform="translate(0,0)"/>
<path d="" fill="#55AAAA" transform="translate(0,0)"/>
<path d="" fill="#3F7FBF" transform="translate(0,0)"/>
<path d="" fill="#007FBF" transform="translate(0,0)"/>
<path d="" fill="#5555AA" transform="translate(0,0)"/>
<path d="" fill="#003FBF" transform="translate(0,0)"/>
<path d="" fill="#7F7FFF" transform="translate(0,0)"/>
<path d="" fill="#7F7FFF" transform="translate(0,0)"/>
<path d="" fill="#0055AA" transform="translate(0,0)"/>
<path d="" fill="#7F7FFF" transform="translate(0,0)"/>
<path d="" fill="#007FFF" transform="translate(0,0)"/>
<path d="" fill="#003FBF" transform="translate(0,0)"/>
<path d="" fill="#3F7FBF" transform="translate(0,0)"/>
<path d="" fill="#007FBF" transform="translate(0,0)"/>
<path d="" fill="#0055AA" transform="translate(0,0)"/>
<path d="" fill="#5555FF" transform="translate(0,0)"/>
<path d="" fill="#003FBF" transform="translate(0,0)"/>
<path d="" fill="#007F7F" transform="translate(0,0)"/>
<path d="" fill="#007FFF" transform="translate(0,0)"/>
<path d="" fill="#7F7FFF" transform="translate(0,0)"/>
<path d="" fill="#0000AA" transform="translate(0,0)"/>
<path d="" fill="#7F7FFF" transform="translate(0,0)"/>
<path d="" fill="#0055AA" transform="translate(0,0)"/>
<path d="" fill="#7F7FFF" transform="translate(0,0)"/>
<path d="" fill="#5555FF" transform="translate(0,0)"/>
<path d="" fill="#5555AA" transform="translate(0,0)"/>
<path d="" fill="#5555AA" transform="translate(0,0)"/>
<path d="" fill="#3F7FBF" transform="translate(0,0)"/>
<path d="" fill="#007FBF" transform="translate(0,0)"/>
<path d="" fill="#3F7FBF" transform="translate(0,0)"/>
<path d="" fill="#003FBF" transform="translate(0,0)"/>
<path d="" fill="#007FFF" transform="translate(0,0)"/>
<path d="" fill="#0055FF" transform="translate(0,0)"/>
<path d="" fill="#7F7F7F" transform="translate(0,0)"/>
<path d="" fill="#5555FF" transform="translate(0,0)"/>
<path d="" fill="#0055AA" transform="translate(0,0)"/>
<path d="" fill="#00FFFF" transform="translate(0,0)"/>
<path d="" fill="#007FFF" transform="translate(0,0)"/>
<path d="" fill="#0055AA" transform="translate(0,0)"/>
<path d="" fill="#0055FF" transform="translate(0,0)"/>
<path d="" fill="#003FFF" transform="translate(0,0)"/>
<path d="" fill="#007FFF" transform="translate(0,0)"/>
<path d="" fill="#7F7FFF" transform="translate(0,0)"/>
<path d="" fill="#007FFF" transform="translate(0,0)"/>
<path d="" fill="#55AAFF" transform="translate(0,0)"/>
<path d="" fill="#007FFF" transform="translate(0,0)"/>
<path d="" fill="#007FFF" transform="translate(0,0)"/>
<path d="" fill="#007FFF" transform="translate(0,0)"/>
<path d="" fill="#007FFF" transform="translate(0,0)"/>
<path d="" fill="#0000AA" transform="translate(0,0)"/>
<path d="" fill="#0055FF" transform="translate(0,0)"/>
<path d="" fill="#007FFF" transform="translate(0,0)"/>
<path d="" fill="#007FFF" transform="translate(0,0)"/>
<path d="" fill="#007FFF" transform="translate(0,0)"/>
<path d="" fill="#55AAFF" transform="translate(0,0)"/>
<path d="" fill="#7F7FFF" transform="translate(0,0)"/>
<path d="" fill="#007FFF" transform="translate(0,0)"/>
<path d="" fill="#7F7FFF" transform="translate(0,0)"/>
<path d="" fill="#3F7FBF" transform="translate(0,0)"/>
<path d="" fill="#007FFF" transform="translate(0,0)"/>
<path d="" fill="#7F7FFF" transform="translate(0,0)"/>
<path d="" fill="#5555FF" transform="translate(0,0)"/>
<path d="" fill="#7F7FFF" transform="translate(0,0)"/>
<path d="" fill="#0055AA" transform="translate(0,0)"/>
<path d="" fill="#0055AA" transform="translate(0,0)"/>
<path d="" fill="#0055AA" transform="translate(0,0)"/>
<path d="" fill="#3F3FBF" transform="translate(0,0)"/>
<path d="" fill="#00AAFF" transform="translate(0,0)"/>
<path d="" fill="#55AAAA" transform="translate(0,0)"/>
<path d="" fill="#003FBF" transform="translate(0,0)"/>
<path d="" fill="#3F7FBF" transform="translate(0,0)"/>
<path d="" fill="#0055FF" transform="translate(0,0)"/>
<path d="" fill="#0055FF" transform="translate(0,0)"/>
<path d="" fill="#0055FF" transform="translate(0,0)"/>
<path d="" fill="#5555FF" transform="translate(0,0)"/>
<path d="" fill="#0055FF" transform="translate(0,0)"/>
<path d="" fill="#5555FF" transform="translate(0,0)"/>
<path d="" fill="#0055FF" transform="translate(0,0)"/>
<path d="" fill="#7F7FFF" transform="translate(0,0)"/>
<path d="" fill="#007FFF" transform="translate(0,0)"/>
<path d="" fill="#007F7F" transform="translate(0,0)"/>
<path d="" fill="#007FFF" transform="translate(0,0)"/>
<path d="" fill="#007FFF" transform="translate(0,0)"/>
<path d="" fill="#7F7FFF" transform="translate(0,0)"/>
<path d="" fill="#007FFF" transform="translate(0,0)"/>
<path d="" fill="#0055AA" transform="translate(0,0)"/>
<path d="" fill="#7F7FFF" transform="translate(0,0)"/>
<path d="" fill="#0055AA" transform="translate(0,0)"/>
<path d="" fill="#0000FF" transform="translate(0,0)"/>
<path d="" fill="#0055FF" transform="translate(0,0)"/>
<path d="" fill="#0055FF" transform="translate(0,0)"/>
<path d="" fill="#5555AA" transform="translate(0,0)"/>
</svg>
