<?xml version="1.0" standalone="no"?>
<!DOCTYPE svg PUBLIC "-//W3C//DTD SVG 20010904//EN" "http://www.w3.org/TR/2001/REC-SVG-20010904/DTD/svg10.dtd">
<svg xmlns="http://www.w3.org/2000/svg" version="1.0" width="1024.000000pt" height="1024.000000pt" viewBox="0 0 1024.000000 1024.000000" preserveAspectRatio="xMidYMid meet">
<metadata>
Created by potrace 1.16, written by Peter Selinger 2001-2019
<meta name="Producer" content="Online-Convert"/></metadata>
<g transform="translate(0.000000,1024.000000) scale(0.100000,-0.100000)" fill="#000000" stroke="none">
<path d="M6025 7176 c-93 -40 -127 -165 -67 -245 44 -60 69 -66 296 -71 l208 -5 -198 -203 c-110 -111 -202 -202 -206 -202 -4 0 -44 25 -89 55 -164 112 -374 199 -599 246 -140 30 -463 33 -609 5 -199 -37 -433 -131 -604 -243 -86 -57 -84 -56 -211 -166 -120 -104 -126 -110 -207 -212 -187 -234 -307 -499 -354 -782 -22 -132 -17 -457 10 -573 21 -93 62 -218 81 -248 8 -12 12 -28 8 -34 -4 -6 -3 -8 4 -4 6 3 25 -2 44 -13 84 -49 181 -25 225 54 31 54 29 101 -8 207 -147 429 2 972 363 1324 180 175 365 279 611 340 82 21 136 27 272 31 197 6 298 -4 447 -47 144 -41 374 -156 366 -181 -2 -5 -92 -98 -201 -208 l-198 -199 -102 36 c-90 31 -116 36 -222 40 -144 5 -236 -12 -340 -62 -209 -99 -355 -269 -427 -496 -20 -65 -23 -95 -22 -220 0 -131 3 -153 28 -230 15 -47 41 -109 58 -139 l30 -53 -326 -327 c-178 -179 -400 -404 -493 -500 l-168 -173 -5 194 c-5 192 -5 195 -32 230 -74 97 -221 86 -276 -22 -22 -45 -23 -46 -20 -456 l3 -410 27 -42 c52 -79 39 -76 518 -76 387 1 429 3 464 19 55 27 86 77 86 144 0 69 -27 113 -90 144 -42 21 -57 22 -257 22 -117 0 -212 2 -211 5 0 3 88 90 194 194 l193 189 68 -55 c271 -221 655 -345 1028 -332 324 12 661 136 939 347 298 227 509 508 620 826 63 182 80 281 80 491 1 202 -10 276 -63 433 -52 153 -95 197 -191 197 -83 0 -139 -42 -160 -120 -9 -32 -5 -53 24 -148 75 -239 82 -424 24 -662 -102 -422 -478 -820 -913 -968 -242 -83 -554 -87 -799 -11 -140 43 -314 131 -409 205 l-27 22 206 205 207 204 65 -33 c106 -55 227 -77 384 -72 111 4 145 9 207 31 257 93 460 314 515 564 20 91 20 238 0 323 -18 79 -79 208 -128 272 l-36 47 525 525 525 524 0 -216 c0 -126 5 -234 11 -256 21 -77 104 -127 185 -111 49 9 108 67 123 120 13 49 15 831 1 889 -11 51 -38 86 -86 113 -39 22 -42 23 -464 22 -331 0 -432 -3 -455 -13z"/>
</g>
</svg>
